#!OML:ASF E:\emotionWalksFemale\Project 1\Capture day 1\Session 1\Female1.ASF
:FULLY-SPECIFIED
:DEGREES
331
root 10.4695 15.5277 19.2252 538.674 5.94106 -179.001
lowerback 9.31338 1.66578 2.63913
upperback -4.83207 2.70937 0.169426
thorax -10.3108 1.16602 -1.79553
lowerneck -6.94077 0.303127 -3.63754
upperneck 4.91207 0.49147 4.40888
head 2.78861 0.335522 2.10551
rclavicle 3.79803e-014 1.06847e-014
rhumerus -47.8759 16.8345 -100.399
rradius 38.0308
rwrist 10.2021
rhand -2.53664 -55.2826
rfingers 7.12502
rthumb 23.1586 -83.9105
lclavicle 3.79803e-014 1.06847e-014
lhumerus -43.5646 -5.34894 89.0056
lradius 34.4374
lwrist -13.7813
lhand 0.335602 -33.9916
lfingers 7.12502
lthumb 25.9118 -5.73742
rfemur -1.35065 20.1536 25.077
rtibia 16.0104
rfoot -14.8492 -29.7734
rtoes -4.18415
lfemur -6.32674 -23.6582 -22.359
ltibia 22.9761
lfoot -18.4187 27.2308
ltoes -47.3178
332
root 10.4762 15.5278 19.2167 538.552 5.88306 -178.912
lowerback 9.56974 1.65557 2.75884
upperback -4.89943 2.72626 0.186416
thorax -10.5343 1.16138 -1.85979
lowerneck -7.11041 0.235972 -3.7184
upperneck 5.19782 0.403562 4.48306
head 2.9229 0.295446 2.14834
rclavicle 4.82736e-014 2.01269e-014
rhumerus -47.9051 16.6464 -100.264
rradius 37.7829
rwrist 10.3986
rhand -2.37233 -55.8468
rfingers 7.12502
rthumb 23.3162 -84.4548
lclavicle 4.82736e-014 2.01269e-014
lhumerus -43.6383 -5.25343 88.8803
lradius 34.453
lwrist -13.8888
lhand -0.0481303 -34.1304
lfingers 7.12502
lthumb 25.5443 -5.823
rfemur -1.12821 20.3066 25.2779
rtibia 15.9665
rfoot -14.9456 -29.9314
rtoes -3.2276
lfemur -6.14105 -23.8422 -22.2987
ltibia 22.9631
lfoot -18.6 27.1245
ltoes -46.5804
333
root 10.4823 15.5265 19.2078 538.448 5.96103 -178.951
lowerback 9.46384 1.72222 2.70684
upperback -4.78416 2.79793 0.201391
thorax -10.3419 1.20323 -1.81966
lowerneck -7.3142 0.184427 -3.80491
upperneck 5.28202 0.347132 4.46242
head 2.99351 0.266317 2.15877
rclavicle -4.84103e-014 -6.75868e-015
rhumerus -47.7392 16.5442 -100.015
rradius 37.5335
rwrist 10.7712
rhand -2.13007 -55.8849
rfingers 7.12502
rthumb 23.5486 -84.4632
lclavicle -4.84103e-014 -6.75868e-015
lhumerus -43.4456 -5.17183 88.809
lradius 34.4842
lwrist -13.9624
lhand -0.210963 -34.1361
lfingers 7.12502
lthumb 25.3883 -5.80643
rfemur -0.954913 20.346 25.3005
rtibia 15.8975
rfoot -14.8048 -29.8276
rtoes -2.31745
lfemur -5.9473 -23.9518 -22.388
ltibia 22.9407
lfoot -18.87 27.0819
ltoes -45.2738
334
root 10.4866 15.5268 19.2028 538.413 5.98546 -179.04
lowerback 9.39948 1.7564 2.59663
upperback -4.74924 2.82635 0.222466
thorax -10.2691 1.22681 -1.73664
lowerneck -7.3586 0.156359 -3.87976
upperneck 5.2818 0.320331 4.41226
head 3.00327 0.249251 2.15488
rclavicle 5.01931e-015 1.26228e-014
rhumerus -47.713 16.4337 -99.7672
rradius 37.4257
rwrist 10.9711
rhand -2.20358 -55.4196
rfingers 7.12502
rthumb 23.4781 -84.007
lclavicle 5.01931e-015 1.26228e-014
lhumerus -43.3692 -5.1408 88.8214
lradius 34.5398
lwrist -13.889
lhand -0.250957 -34.0162
lfingers 7.12502
lthumb 25.35 -5.68117
rfemur -0.909755 20.2976 25.2373
rtibia 15.8986
rfoot -14.4308 -29.7681
rtoes -2.34195
lfemur -5.85837 -24.0694 -22.4985
ltibia 22.8746
lfoot -18.858 27.1348
ltoes -44.4934
335
root 10.49 15.5305 19.1993 538.43 5.93937 -179.094
lowerback 9.0237 1.75147 2.60656
upperback -4.5781 2.79697 0.206739
thorax -9.85572 1.21973 -1.73325
lowerneck -7.32585 0.1337 -3.9285
upperneck 5.04524 0.298078 4.41992
head 2.91777 0.236549 2.16109
rclavicle 2.45002e-014 8.05078e-015
rhumerus -47.4314 16.3724 -99.5498
rradius 37.3667
rwrist 10.8395
rhand -2.41686 -54.9801
rfingers 7.12502
rthumb 23.2735 -83.5936
lclavicle 2.45002e-014 8.05078e-015
lhumerus -43.0085 -5.01794 88.7231
lradius 34.4774
lwrist -13.8724
lhand -0.122763 -34.0996
lfingers 7.12502
lthumb 25.4728 -5.78198
rfemur -0.965601 20.2966 25.1854
rtibia 15.9949
rfoot -14.4512 -29.7839
rtoes -2.0885
lfemur -5.83215 -24.2468 -22.543
ltibia 22.767
lfoot -18.8434 27.0838
ltoes -44.0193
336
root 10.4941 15.5309 19.1941 538.368 5.96825 -179.238
lowerback 9.14976 1.75858 2.44411
upperback -4.65723 2.79256 0.198236
thorax -10.025 1.22472 -1.65811
lowerneck -7.20648 0.1271 -3.84445
upperneck 5.08275 0.286618 4.23784
head 2.90637 0.224224 2.08288
rclavicle 1.16786e-014 1.78906e-015
rhumerus -47.6434 16.3414 -99.5064
rradius 37.4093
rwrist 10.458
rhand -2.37102 -55.1973
rfingers 7.12502
rthumb 23.3175 -83.8051
lclavicle 1.16786e-014 1.78906e-015
lhumerus -43.055 -4.78265 88.6306
lradius 34.4902
lwrist -13.8428
lhand 0.403889 -34.1296
lfingers 7.12502
lthumb 25.9772 -5.88501
rfemur -0.927019 20.3068 25.0615
rtibia 16.0628
rfoot -14.4928 -29.7407
rtoes -1.8044
lfemur -5.69709 -24.3221 -22.7414
ltibia 22.679
lfoot -18.6936 27.1354
ltoes -44.1163
337
root 10.5001 15.5293 19.1894 538.277 5.91204 -179.328
lowerback 9.33882 1.72658 2.29169
upperback -4.73764 2.74073 0.217372
thorax -10.2365 1.20666 -1.55328
lowerneck -7.16678 0.14664 -3.76932
upperneck 5.19923 0.311706 4.06557
head 2.93552 0.231136 2.01369
rclavicle -5.90142e-015 6.06293e-015
rhumerus -47.7734 16.4738 -99.5288
rradius 37.3342
rwrist 10.0443
rhand -2.4313 -55.7387
rfingers 7.12502
rthumb 23.2597 -84.3539
lclavicle -5.90142e-015 6.06293e-015
lhumerus -43.1475 -4.53885 88.557
lradius 34.5832
lwrist -13.7925
lhand 0.876807 -33.9879
lfingers 7.12502
lthumb 26.4299 -5.8105
rfemur -0.814614 20.2808 25.0385
rtibia 16.108
rfoot -14.347 -29.7907
rtoes -1.90758
lfemur -5.53362 -24.4363 -22.8834
ltibia 22.6099
lfoot -18.4204 27.2446
ltoes -44.3335
338
root 10.5078 15.5301 19.1848 538.248 5.69259 -179.322
lowerback 9.13506 1.65182 2.30899
upperback -4.63298 2.62932 0.207248
thorax -10.0022 1.15541 -1.54334
lowerneck -7.16806 0.158308 -3.75418
upperneck 5.10807 0.328195 4.05306
head 2.9038 0.239012 2.0061
rclavicle -7.72775e-015 -1.2921e-015
rhumerus -47.5308 16.5312 -99.4857
rradius 37.1246
rwrist 9.99861
rhand -2.21339 -56.3858
rfingers 7.12502
rthumb 23.4687 -84.9744
lclavicle -7.72775e-015 -1.2921e-015
lhumerus -42.9582 -4.5185 88.4942
lradius 34.6566
lwrist -13.6366
lhand 0.904823 -33.9344
lfingers 7.12502
lthumb 26.4567 -5.76105
rfemur -0.748462 20.3194 25.1323
rtibia 16.1678
rfoot -14.3299 -30.0626
rtoes -2.00584
lfemur -5.46664 -24.6298 -22.8653
ltibia 22.5416
lfoot -18.3197 27.2428
ltoes -44.485
339
root 10.5155 15.5305 19.1828 538.265 5.47851 -179.356
lowerback 9.02555 1.60842 2.23589
upperback -4.60869 2.5569 0.204533
thorax -9.9159 1.12703 -1.48799
lowerneck -7.11426 0.130922 -3.7049
upperneck 5.03352 0.289388 4.0063
head 2.86932 0.218486 1.97789
rclavicle -2.95195e-014 1.49089e-015
rhumerus -47.4516 16.4087 -99.3569
rradius 36.9922
rwrist 10.1348
rhand -1.17511 -57.4635
rfingers 7.12502
rthumb 24.4644 -85.9212
lclavicle -2.95195e-014 1.49089e-015
lhumerus -42.8854 -4.64816 88.5432
lradius 34.7215
lwrist -13.4639
lhand 0.769631 -33.9461
lfingers 7.12502
lthumb 26.3273 -5.75339
rfemur -0.728325 20.379 25.158
rtibia 16.1747
rfoot -14.3097 -30.3411
rtoes -2.03032
lfemur -5.49298 -24.7579 -22.8559
ltibia 22.5022
lfoot -18.1593 27.2248
ltoes -44.8026
340
root 10.5257 15.5318 19.1909 538.4 5.22175 -179.408
lowerback 8.97806 1.54742 2.1438
upperback -4.65979 2.46125 0.162402
thorax -9.94946 1.08554 -1.46461
lowerneck -7.00699 0.101226 -3.63702
upperneck 4.88892 0.24362 4.00007
head 2.80148 0.196096 1.95799
rclavicle 1.98785e-016 7.25564e-015
rhumerus -47.3222 16.1479 -99.1847
rradius 36.8861
rwrist 10.1788
rhand -0.371267 -58.1855
rfingers 7.12502
rthumb 25.2347 -86.5369
lclavicle 1.98785e-016 7.25564e-015
lhumerus -42.8026 -4.68406 88.4843
lradius 34.6905
lwrist -13.5034
lhand 0.581678 -34.1227
lfingers 7.12502
lthumb 26.1474 -5.90318
rfemur -0.841911 20.3963 25.1162
rtibia 16.1333
rfoot -14.25 -30.5776
rtoes -1.9501
lfemur -5.71984 -24.638 -22.7761
ltibia 22.477
lfoot -17.5341 27.1485
ltoes -45.6831
341
root 10.5286 15.5311 19.1763 538.452 5.41971 -179.418
lowerback 9.1774 1.6064 2.21371
upperback -4.92481 2.57014 0.118788
thorax -10.3536 1.12738 -1.58412
lowerneck -6.86926 0.104461 -3.602
upperneck 5.10703 0.238399 3.981
head 2.84923 0.192991 1.94662
rclavicle 2.5022e-014 5.26779e-015
rhumerus -47.6999 15.8012 -99.1538
rradius 36.8088
rwrist 10.2309
rhand 0.0176981 -58.5295
rfingers 7.12502
rthumb 25.6073 -86.8278
lclavicle 2.5022e-014 5.26779e-015
lhumerus -43.2369 -4.72854 88.4705
lradius 34.758
lwrist -13.4527
lhand 0.356193 -34.3669
lfingers 7.12502
lthumb 25.9315 -6.11564
rfemur -0.863504 20.4669 25.0913
rtibia 16.1162
rfoot -14.1541 -30.4366
rtoes -2.3563
lfemur -5.6389 -24.7947 -22.8592
ltibia 22.4382
lfoot -17.2915 27.7125
ltoes -46.4182
342
root 10.5331 15.5311 19.1697 538.48 5.5163 -179.371
lowerback 8.69016 1.66671 2.20408
upperback -4.70125 2.63119 0.191892
thorax -9.81693 1.1699 -1.48591
lowerneck -7.07034 0.0889213 -3.61052
upperneck 5.09219 0.231583 3.83466
head 2.88155 0.184756 1.90101
rclavicle -9.46712e-015 1.2921e-015
rhumerus -47.3612 15.9102 -98.9705
rradius 36.6793
rwrist 10.0823
rhand 0.642796 -59.2934
rfingers 7.12502
rthumb 26.2059 -87.5043
lclavicle -9.46712e-015 1.2921e-015
lhumerus -42.8546 -4.7826 88.6027
lradius 34.7743
lwrist -13.3329
lhand 0.0853769 -34.5202
lfingers 7.12502
lthumb 25.6721 -6.23125
rfemur -0.871782 20.5071 25.1526
rtibia 16.1191
rfoot -14.1493 -30.3731
rtoes -2.29286
lfemur -5.58635 -24.9923 -22.8155
ltibia 22.4049
lfoot -17.6368 27.9428
ltoes -46.5234
343
root 10.5395 15.5316 19.166 538.479 5.55687 -179.299
lowerback 8.98208 1.66183 2.26934
upperback -4.89279 2.65324 0.182439
thorax -10.199 1.17022 -1.55316
lowerneck -7.12172 0.0931924 -3.63305
upperneck 5.38149 0.232166 3.9109
head 2.9906 0.188665 1.93551
rclavicle -3.71727e-014 -2.78299e-015
rhumerus -47.7188 15.8613 -99.1552
rradius 36.2548
rwrist 10.917
rhand 0.669452 -59.1113
rfingers 7.12502
rthumb 26.2314 -87.3183
lclavicle -3.71727e-014 -2.78299e-015
lhumerus -43.1037 -4.72019 88.5302
lradius 34.7687
lwrist -13.4419
lhand 0.0092503 -34.6475
lfingers 7.12502
lthumb 25.5992 -6.34806
rfemur -0.834987 20.5865 25.2809
rtibia 16.1261
rfoot -14.2952 -30.4314
rtoes -1.77935
lfemur -5.5195 -25.1864 -22.73
ltibia 22.3791
lfoot -18.0562 28.0535
ltoes -46.366
344
root 10.5462 15.5307 19.1583 538.475 5.55603 -179.287
lowerback 8.97921 1.65122 2.26867
upperback -4.94586 2.64193 0.169813
thorax -10.2562 1.16414 -1.56575
lowerneck -7.12323 0.100278 -3.74422
upperneck 5.47948 0.24151 4.07223
head 3.02594 0.19766 2.01192
rclavicle 3.47873e-014 6.95746e-015
rhumerus -47.925 15.7837 -99.209
rradius 35.071
rwrist 13.8302
rhand -0.90667 -56.6661
rfingers 7.12502
rthumb 24.7217 -85.0888
lclavicle 3.47873e-014 6.95746e-015
lhumerus -43.1582 -4.60682 88.477
lradius 34.7971
lwrist -13.4978
lhand 0.276924 -34.5416
lfingers 7.12502
lthumb 25.8556 -6.27917
rfemur -0.786009 20.7121 25.3501
rtibia 16.119
rfoot -14.3674 -30.5277
rtoes -1.50947
lfemur -5.46317 -25.2455 -22.7295
ltibia 22.3657
lfoot -17.7539 28.303
ltoes -46.8433
345
root 10.5518 15.5314 19.1511 538.484 5.5692 -179.359
lowerback 8.81274 1.66339 2.2293
upperback -4.91438 2.64377 0.135536
thorax -10.1217 1.16915 -1.5732
lowerneck -7.23324 0.0743288 -3.81195
upperneck 5.60307 0.211568 4.11851
head 3.09152 0.184195 2.04175
rclavicle -1.55797e-014 -1.14301e-014
rhumerus -47.8037 15.6779 -99.1645
rradius 35.0117
rwrist 13.598
rhand -0.706925 -57.0896
rfingers 7.12502
rthumb 24.9131 -85.4859
lclavicle -1.55797e-014 -1.14301e-014
lhumerus -43.1112 -4.62183 88.5109
lradius 34.8755
lwrist -13.4381
lhand 0.396037 -34.4498
lfingers 7.12502
lthumb 25.9697 -6.20415
rfemur -0.793804 20.7048 25.284
rtibia 16.1229
rfoot -14.4178 -30.4722
rtoes -1.33421
lfemur -5.43099 -25.2395 -22.8073
ltibia 22.3571
lfoot -17.6357 28.4192
ltoes -46.8763
